<svg width="14" height="20" viewBox="0 0 18 24" fill="none" xmlns="http://www.w3.org/2000/svg">
<path d="M0 3C0 1.34315 1.34315 0 3 0H15C16.6569 0 18 1.34315 18 3V17C18 17.5523 17.5523 18 17 18H4C2.89543 18 2 18.8954 2 20C2 21.1046 2.89543 22 4 22H17C17.5523 22 18 22.4477 18 23C18 23.5523 17.5523 24 17 24H4C1.79086 24 0 22.2091 0 20C0 19.8876 0.00463895 19.7762 0.0137359 19.6661C0.00470172 19.6121 0 19.5566 0 19.5V3ZM16 3C16 2.44772 15.5523 2 15 2H3C2.44772 2 2 2.44772 2 3V16.5351C2.58835 16.1948 3.27143 16 4 16H16V3ZM4 19C3.44772 19 3 19.4477 3 20C3 20.5523 3.44772 21 4 21H17C17.5523 21 18 20.5523 18 20C18 19.4477 17.5523 19 17 19H4Z" fill="#f7d800"/>
</svg>
