<svg width="15" height="26" viewBox="0 0 32 43" fill="none" xmlns="http://www.w3.org/2000/svg">
<path d="M19 0.339844C19 0.339844 20.48 5.63984 20.48 9.93984C20.48 14.0598 17.78 17.4098 13.65 17.4098C9.52 17.4098 6.4 14.0698 6.4 9.93984L6.45 9.21984C2.43 14.0298 0 20.2298 0 26.9998C0 35.8398 7.16 42.9998 16 42.9998C24.84 42.9998 32 35.8398 32 26.9998C32 16.2098 26.81 6.58984 19 0.339844ZM15.42 36.9998C11.86 36.9998 8.97 34.1898 8.97 30.7198C8.97 27.4698 11.06 25.1898 14.6 24.4798C18.14 23.7698 21.8 22.0698 23.83 19.3298C24.61 21.9098 25.02 24.6298 25.02 27.3998C25.02 32.6898 20.72 36.9998 15.42 36.9998Z" fill="#f79d3b"/>
</svg>
