<svg width="22" height="22" viewBox="0 0 20 20" fill="none" xmlns="http://www.w3.org/2000/svg">
<path d="M11.7526 2.92418C11.2059 3.28608 10.679 3.70574 10.1924 4.19239C9.47544 4.90932 9.49469 4.94822 8.85359 5.68204M11.7526 2.92418C15.178 0.656854 19.3848 0.656854 19.3848 0.656854C19.3848 0.656854 19.3848 4.86362 17.1174 8.28902M11.7526 2.92418L17.1174 8.28902M17.1174 8.28902C16.7555 8.83576 16.3359 9.3626 15.8492 9.84924C15.1323 10.5662 15.0934 10.5469 14.3596 11.188M5.11523 10.429C4.74278 10.9526 4.53552 11.2635 4.53552 11.2635L8.77816 15.5061C8.77816 15.5061 9.08905 15.2988 9.61266 14.9264M5.11523 10.429L1.70709 7.02082L7.36394 4.19239L8.85359 5.68204M5.11523 10.429C5.83965 9.41053 7.18898 7.58739 8.85359 5.68204M9.61266 14.9264L13.0208 18.3345L15.8492 12.6777L14.3596 11.188M9.61266 14.9264C10.6311 14.202 12.4542 12.8526 14.3596 11.188" stroke="#4aa0e1"/>
<path d="M4.00002 16C4.3503 14.5825 4.99994 14.0001 5.5 14.5C6.00002 15 5.4175 15.6497 4.00002 16Z" stroke="#f79d3b"/>
</svg>
