<svg width="29" height="30" viewBox="0 0 39 40" fill="none" xmlns="http://www.w3.org/2000/svg">
<path d="M35.5797 39.7492L22.2447 26.4118C16.3126 30.6292 8.13839 29.5977 3.44007 24.0387C-1.25824 18.4797 -0.91326 10.2479 4.2337 5.10152C9.37931 -0.0471076 17.6119 -0.393585 23.1719 4.30449C28.732 9.00256 29.7641 17.1776 25.5464 23.1102L38.8814 36.4475L35.582 39.7468L35.5797 39.7492ZM14.1317 5.66615C9.70701 5.66516 5.88965 8.77109 4.99081 13.1035C4.09197 17.436 6.35869 21.8041 10.4186 23.5634C14.4785 25.3227 19.2158 23.9895 21.7623 20.371C24.3087 16.7525 23.9645 11.8433 20.938 8.61552L22.3497 10.0155L20.7584 8.42885L20.7304 8.40085C18.9845 6.64426 16.6083 5.65948 14.1317 5.66615Z" fill="#FFFFFF"/>
</svg>
