<svg width="30" height="30" viewBox="0 0 46 48" fill="none" xmlns="http://www.w3.org/2000/svg">
<path d="M27.2466 47.3332H18.7532C17.6568 47.3332 16.7082 46.5702 16.4736 45.4992L15.5239 41.1032C14.257 40.5481 13.0557 39.854 11.9422 39.0335L7.65589 40.3985C6.61056 40.7319 5.47419 40.2919 4.92589 39.3415L0.669891 31.9892C0.127596 31.0384 0.314428 29.839 1.12022 29.0982L4.44522 26.0648C4.29402 24.6908 4.29402 23.3042 4.44522 21.9302L1.12022 18.9038C0.313241 18.1627 0.126335 16.9619 0.669891 16.0105L4.91656 8.6535C5.46486 7.70313 6.60123 7.26316 7.64656 7.5965L11.9329 8.9615C12.5024 8.53954 13.0952 8.15003 13.7086 7.79484C14.2973 7.46279 14.9033 7.16215 15.5239 6.89417L16.4759 2.50284C16.7094 1.43176 17.657 0.667657 18.7532 0.666504H27.2466C28.3428 0.667657 29.2904 1.43176 29.5239 2.50284L30.4852 6.8965C31.1404 7.18471 31.7785 7.51036 32.3962 7.87184C32.9724 8.20507 33.5294 8.57042 34.0646 8.96617L38.3532 7.60117C39.3979 7.26907 40.5328 7.70888 41.0809 8.65817L45.3276 16.0152C45.8699 16.966 45.683 18.1654 44.8772 18.9062L41.5522 21.9395C41.7034 23.3136 41.7034 24.7001 41.5522 26.0742L44.8772 29.1075C45.683 29.8483 45.8699 31.0477 45.3276 31.9985L41.0809 39.3555C40.5328 40.3048 39.3979 40.7446 38.3532 40.4125L34.0646 39.0475C33.5219 39.4472 32.9579 39.8172 32.3752 40.1558C31.7635 40.5103 31.1325 40.8304 30.4852 41.1148L29.5239 45.4992C29.2894 46.5693 28.3421 47.3323 27.2466 47.3332ZM12.7799 33.8675L14.6932 35.2675C15.1245 35.5852 15.5741 35.8774 16.0396 36.1425C16.4775 36.3962 16.9285 36.6267 17.3906 36.8332L19.5676 37.7875L20.6339 42.6665H25.3706L26.4369 37.7852L28.6139 36.8308C29.5643 36.4117 30.4663 35.8907 31.3042 35.2768L33.2199 33.8768L37.9822 35.3935L40.3506 31.2915L36.6569 27.9245L36.9182 25.5632C37.033 24.5304 37.033 23.488 36.9182 22.4552L36.6569 20.0938L40.3529 16.7198L37.9822 12.6155L33.2199 14.1322L31.3042 12.7322C30.4661 12.1155 29.5641 11.5906 28.6139 11.1665L26.4369 10.2122L25.3706 5.33317H20.6339L19.5629 10.2145L17.3906 11.1665C16.9281 11.3696 16.4771 11.5978 16.0396 11.8502C15.5769 12.1146 15.1298 12.4052 14.7002 12.7205L12.7846 14.1205L8.02456 12.6038L5.65156 16.7198L9.34522 20.0822L9.08389 22.4458C8.9691 23.4787 8.9691 24.521 9.08389 25.5538L9.34522 27.9152L5.65156 31.2822L8.01989 35.3842L12.7799 33.8675ZM22.9906 33.3332C17.8359 33.3332 13.6572 29.1545 13.6572 23.9998C13.6572 18.8452 17.8359 14.6665 22.9906 14.6665C28.1452 14.6665 32.3239 18.8452 32.3239 23.9998C32.3175 29.1518 28.1425 33.3267 22.9906 33.3332ZM22.9906 19.3332C20.4411 19.3358 18.3656 21.3838 18.3291 23.933C18.2926 26.4821 20.3085 28.5888 22.8568 28.6644C25.4051 28.7401 27.5425 26.7567 27.6572 24.2098V25.1432V23.9998C27.6572 21.4225 25.5679 19.3332 22.9906 19.3332Z" fill="#87F092"/>
</svg>
